name Walk10.mot
datacolumns 19
datarows 12
range 1.78000000 1.83500000
endheader

                time	   L_ground_force_vx	   L_ground_force_vy	   L_ground_force_vz	   L_ground_force_px	   L_ground_force_py	   L_ground_force_pz	   R_ground_force_vx	   R_ground_force_vy	   R_ground_force_vz	   R_ground_force_px	   R_ground_force_py	   R_ground_force_pz	   L_ground_torque_x	   L_ground_torque_y	   L_ground_torque_z	   R_ground_torque_x	   R_ground_torque_y	   R_ground_torque_z	
          1.78000000	         -0.00078348	         -0.00458028	         -0.00103756	         -0.00003996	          0.00000000	          0.00000466	        -12.54175369	        372.66101632	        -34.01130411	          0.45642630	          0.00000000	          0.16466441	          0.00000000	          0.00006124	          0.00000000	          0.00000000	          3.41368349	          0.00000000	
          1.78500000	         -0.00275668	         -0.00955211	         -0.00048872	         -0.00002340	          0.00000000	          0.00000254	        -11.90303788	        368.26837554	        -33.00957060	          0.45954964	          0.00000000	          0.16486664	          0.00000000	          0.00003329	          0.00000000	          0.00000000	          3.23654694	          0.00000000	
          1.79000000	         -0.00380404	         -0.01198499	         -0.00009811	         -0.00001092	          0.00000000	          0.00000099	        -11.22174051	        365.37504655	        -32.14905148	          0.46235559	          0.00000000	          0.16500424	          0.00000000	          0.00001273	          0.00000000	          0.00000000	          3.06308773	          0.00000000	
          1.79500000	         -0.00417483	         -0.01259728	          0.00016014	         -0.00000206	          0.00000000	         -0.00000009	        -10.47658786	        363.86883879	        -31.43410489	          0.46484200	          0.00000000	          0.16508152	          0.00000000	         -0.00000146	          0.00000000	          0.00000000	          2.88786852	          0.00000000	
          1.80000000	         -0.00408244	         -0.01199364	          0.00031309	          0.00000379	          0.00000000	         -0.00000077	         -9.65266806	        363.63508567	        -30.86320107	          0.46701594	          0.00000000	          0.16510290	          0.00000000	         -0.00001044	          0.00000000	          0.00000000	          2.70638665	          0.00000000	
          1.80500000	         -0.00370032	         -0.01065799	          0.00038641	          0.00000724	          0.00000000	         -0.00000115	         -8.74201197	        364.56531335	        -30.42918621	          0.46889078	          0.00000000	          0.16507193	          0.00000000	         -0.00001537	          0.00000000	          0.00000000	          2.51568264	          0.00000000	
          1.81000000	         -0.00316262	         -0.00895854	          0.00040287	          0.00000888	          0.00000000	         -0.00000130	         -7.74316174	        366.56687934	        -30.11869420	          0.47048724	          0.00000000	          0.16499170	          0.00000000	         -0.00001732	          0.00000000	          0.00000000	          2.31469111	          0.00000000	
          1.81500000	         -0.00256768	         -0.00716020	          0.00038156	          0.00000923	          0.00000000	         -0.00000129	         -6.66000893	        369.56899996	        -29.91112843	          0.47183076	          0.00000000	          0.16486480	          0.00000000	         -0.00001720	          0.00000000	          0.00000000	          2.10376107	          0.00000000	
          1.82000000	         -0.00198308	         -0.00544068	          0.00033772	          0.00000872	          0.00000000	         -0.00000119	         -5.49998704	        373.51899566	        -29.77943161	          0.47295116	          0.00000000	          0.16469342	          0.00000000	         -0.00001577	          0.00000000	          0.00000000	          1.88395203	          0.00000000	
          1.82500000	         -0.00145135	         -0.00390769	          0.00028289	          0.00000771	          0.00000000	         -0.00000103	         -4.27063443	        378.37772525	        -29.69642769	          0.47388230	          0.00000000	          0.16447952	          0.00000000	         -0.00001360	          0.00000000	          0.00000000	          1.65614727	          0.00000000	
          1.83000000	         -0.00099558	         -0.00261556	          0.00022536	          0.00000645	          0.00000000	         -0.00000084	         -2.97730284	        384.11576909	        -29.64028415	          0.47466058	          0.00000000	          0.16422381	          0.00000000	         -0.00001113	          0.00000000	          0.00000000	          1.42026442	          0.00000000	
          1.83500000	         -0.00062457	         -0.00158009	          0.00017065	          0.00000513	          0.00000000	         -0.00000066	         -1.62383226	        390.71036854	        -29.59537386	          0.47532082	          0.00000000	          0.16392732	          0.00000000	         -0.00000867	          0.00000000	          0.00000000	          1.17570458	          0.00000000	
